<svg width="589" height="300" viewBox="0 0 589 300" fill="none" xmlns="http://www.w3.org/2000/svg">
<g clip-path="url(#clip0_24_10)">
<path d="M73.2582 39.5837H112.941V300H73.2582V39.5837ZM169.965 115.76C175.161 106.312 179.059 97.0997 181.657 88.1239C184.255 79.1481 185.791 67.574 186.263 53.4017C182.484 51.2758 179.059 47.8509 175.988 43.1268C173.154 38.4027 171.736 33.7966 171.736 29.3088C171.736 21.7502 174.335 15.1364 179.531 9.46751C184.964 3.79859 191.696 0.964125 199.727 0.964125C207.758 0.964125 214.371 4.271 219.568 10.8847C225.001 17.4985 227.717 24.8209 227.717 32.8518C227.717 42.0638 225.827 52.3388 222.048 63.6766C218.505 74.7783 213.899 85.1713 208.23 94.8557C202.797 104.304 197.483 111.272 192.286 115.76H169.965ZM336.645 178.472L320.346 141.624L312.906 178.472L288.813 300H249.485L303.34 39.5837H307.591L379.162 180.244L400.42 227.367L421.678 180.244L491.831 39.5837H495.729L551.709 300H512.736L486.517 178.472L478.722 141.624L464.55 178.472L401.483 300H399.357L336.645 178.472Z" fill="white" fill-opacity="0.08"/>
<mask id="path-2-outside-1_24_10" maskUnits="userSpaceOnUse" x="2" y="105" width="586" height="147" fill="black">
<rect fill="white" x="2" y="105" width="586" height="147"/>
<path d="M77.8969 139.984L38.0857 241H13.9014L57.9913 129.38C62.6422 117.66 71.1997 113.195 84.4081 113.195C97.4305 113.195 105.988 117.66 110.453 129.38L152.868 241H128.498L90.3612 139.984C89.245 137.007 87.1986 135.705 84.2221 135.705C81.2455 135.705 79.1992 137.007 77.8969 139.984ZM193.271 141.658V241H171.319V140.542C171.319 124.171 180.621 113.195 200.154 113.195C217.642 113.195 225.455 122.125 230.664 136.449L267.313 216.63C268.801 219.606 271.219 221.839 275.312 221.839C279.963 221.839 282.753 219.048 282.753 214.769V115.427H304.891V215.699C304.891 232.256 295.404 243.232 276.056 243.232C258.569 243.232 250.57 234.303 245.361 219.978L208.712 139.798C207.038 136.077 204.805 134.403 200.899 134.403C195.876 134.403 193.271 137.193 193.271 141.658ZM379.475 139.984L339.664 241H315.479L359.569 129.38C364.22 117.66 372.778 113.195 385.986 113.195C399.008 113.195 407.566 117.66 412.031 129.38L454.446 241H430.076L391.939 139.984C390.823 137.007 388.777 135.705 385.8 135.705C382.823 135.705 380.777 137.007 379.475 139.984ZM506.383 115.427H570.007V137.379H505.639C494.291 137.379 489.268 143.518 489.268 152.262C489.268 159.889 493.175 167.145 507.871 167.145H537.265C571.495 167.145 579.494 186.12 579.494 204.165C579.494 225.373 568.146 241 539.497 241H469.549V219.048H540.241C552.147 219.048 557.542 212.537 557.542 203.421C557.542 195.236 553.264 187.794 537.823 187.794H508.616C475.13 187.794 467.316 169.005 467.316 151.518C467.316 130.682 478.478 115.427 506.383 115.427Z"/>
</mask>
<path d="M77.8969 139.984L38.0857 241H13.9014L57.9913 129.38C62.6422 117.66 71.1997 113.195 84.4081 113.195C97.4305 113.195 105.988 117.66 110.453 129.38L152.868 241H128.498L90.3612 139.984C89.245 137.007 87.1986 135.705 84.2221 135.705C81.2455 135.705 79.1992 137.007 77.8969 139.984ZM193.271 141.658V241H171.319V140.542C171.319 124.171 180.621 113.195 200.154 113.195C217.642 113.195 225.455 122.125 230.664 136.449L267.313 216.63C268.801 219.606 271.219 221.839 275.312 221.839C279.963 221.839 282.753 219.048 282.753 214.769V115.427H304.891V215.699C304.891 232.256 295.404 243.232 276.056 243.232C258.569 243.232 250.57 234.303 245.361 219.978L208.712 139.798C207.038 136.077 204.805 134.403 200.899 134.403C195.876 134.403 193.271 137.193 193.271 141.658ZM379.475 139.984L339.664 241H315.479L359.569 129.38C364.22 117.66 372.778 113.195 385.986 113.195C399.008 113.195 407.566 117.66 412.031 129.38L454.446 241H430.076L391.939 139.984C390.823 137.007 388.777 135.705 385.8 135.705C382.823 135.705 380.777 137.007 379.475 139.984ZM506.383 115.427H570.007V137.379H505.639C494.291 137.379 489.268 143.518 489.268 152.262C489.268 159.889 493.175 167.145 507.871 167.145H537.265C571.495 167.145 579.494 186.12 579.494 204.165C579.494 225.373 568.146 241 539.497 241H469.549V219.048H540.241C552.147 219.048 557.542 212.537 557.542 203.421C557.542 195.236 553.264 187.794 537.823 187.794H508.616C475.13 187.794 467.316 169.005 467.316 151.518C467.316 130.682 478.478 115.427 506.383 115.427Z" fill="white"/>
<path d="M77.8969 139.984L70.5677 136.777L70.5084 136.913L70.4541 137.05L77.8969 139.984ZM38.0857 241V249H43.5317L45.5286 243.933L38.0857 241ZM13.9014 241L6.4608 238.061L2.13988 249H13.9014V241ZM57.9913 129.38L50.5554 126.429L50.5508 126.441L57.9913 129.38ZM110.453 129.38L117.931 126.538L117.929 126.532L110.453 129.38ZM152.868 241V249H164.467L160.347 238.158L152.868 241ZM128.498 241L121.014 243.826L122.967 249H128.498V241ZM90.3612 139.984L82.8705 142.793L82.8737 142.801L82.8768 142.809L90.3612 139.984ZM70.4541 137.05L30.6429 238.067L45.5286 243.933L85.3398 142.917L70.4541 137.05ZM38.0857 233H13.9014V249H38.0857V233ZM21.3419 243.939L65.4319 132.319L50.5508 126.441L6.4608 238.061L21.3419 243.939ZM65.4273 132.331C67.2287 127.791 69.4945 125.295 72.058 123.781C74.766 122.182 78.6325 121.195 84.4081 121.195V105.195C76.9754 105.195 69.9588 106.44 63.9233 110.003C57.7432 113.652 53.4049 119.248 50.5554 126.429L65.4273 132.331ZM84.4081 121.195C90.0791 121.195 93.886 122.178 96.5399 123.762C99.0456 125.257 101.262 127.726 102.977 132.228L117.929 126.532C115.179 119.314 110.884 113.69 104.739 110.023C98.7425 106.444 91.7595 105.195 84.4081 105.195V121.195ZM102.975 132.222L145.39 243.842L160.347 238.158L117.931 126.538L102.975 132.222ZM152.868 233H128.498V249H152.868V233ZM135.982 238.174L97.8456 137.158L82.8768 142.809L121.014 243.826L135.982 238.174ZM97.8518 137.175C96.8563 134.52 95.181 131.949 92.496 130.118C89.8246 128.297 86.882 127.705 84.2221 127.705V143.705C84.5387 143.705 84.1075 143.764 83.4826 143.338C83.1958 143.142 83.0013 142.931 82.8918 142.781C82.7916 142.644 82.8048 142.617 82.8705 142.793L97.8518 137.175ZM84.2221 127.705C81.54 127.705 78.6424 128.306 75.994 130.072C73.3655 131.824 71.6652 134.269 70.5677 136.777L85.2262 143.19C85.3315 142.95 85.3803 142.908 85.3254 142.978C85.2614 143.06 85.1129 143.222 84.8692 143.385C84.6238 143.548 84.3899 143.64 84.2269 143.684C84.0788 143.723 84.0575 143.705 84.2221 143.705V127.705ZM193.271 241V249H201.271V241H193.271ZM171.319 241H163.319V249H171.319V241ZM230.664 136.449L223.146 139.183L223.255 139.484L223.388 139.775L230.664 136.449ZM267.313 216.63L260.037 219.955L260.095 220.082L260.157 220.207L267.313 216.63ZM282.753 115.427V107.427H274.753V115.427H282.753ZM304.891 115.427H312.891V107.427H304.891V115.427ZM245.361 219.978L252.879 217.244L252.77 216.944L252.637 216.653L245.361 219.978ZM208.712 139.798L201.417 143.081L201.426 143.102L201.436 143.123L208.712 139.798ZM185.271 141.658V241H201.271V141.658H185.271ZM193.271 233H171.319V249H193.271V233ZM179.319 241V140.542H163.319V241H179.319ZM179.319 140.542C179.319 133.837 181.202 129.267 184.082 126.372C186.946 123.495 191.868 121.195 200.154 121.195V105.195C188.907 105.195 179.412 108.383 172.741 115.086C166.087 121.773 163.319 130.876 163.319 140.542H179.319ZM200.154 121.195C207.442 121.195 211.815 123.012 214.869 125.577C218.114 128.302 220.755 132.609 223.146 139.183L238.182 133.715C235.364 125.965 231.494 118.645 225.158 113.324C218.631 107.842 210.354 105.195 200.154 105.195V121.195ZM223.388 139.775L260.037 219.955L274.589 213.304L237.94 133.123L223.388 139.775ZM260.157 220.207C261.303 222.499 263.034 224.966 265.686 226.86C268.431 228.821 271.708 229.839 275.312 229.839V213.839C275.165 213.839 275.064 213.829 275.003 213.82C274.943 213.811 274.915 213.802 274.913 213.802C274.91 213.801 274.922 213.804 274.941 213.814C274.96 213.824 274.976 213.834 274.986 213.84C275.033 213.874 274.811 213.737 274.468 213.052L260.157 220.207ZM275.312 229.839C279.238 229.839 283.251 228.634 286.328 225.669C289.433 222.677 290.753 218.69 290.753 214.769H274.753C274.753 214.971 274.721 214.954 274.784 214.79C274.853 214.613 274.994 214.371 275.226 214.148C275.455 213.927 275.661 213.832 275.736 213.806C275.797 213.783 275.68 213.839 275.312 213.839V229.839ZM290.753 214.769V115.427H274.753V214.769H290.753ZM282.753 123.427H304.891V107.427H282.753V123.427ZM296.891 115.427V215.699H312.891V115.427H296.891ZM296.891 215.699C296.891 222.48 294.972 227.104 292.059 230.032C289.162 232.943 284.23 235.232 276.056 235.232V251.232C287.23 251.232 296.716 248.034 303.4 241.318C310.067 234.618 312.891 225.476 312.891 215.699H296.891ZM276.056 235.232C268.766 235.232 264.329 233.413 261.22 230.826C257.932 228.092 255.255 223.78 252.879 217.244L237.842 222.712C240.675 230.501 244.603 237.816 250.988 243.128C257.552 248.587 265.86 251.232 276.056 251.232V235.232ZM252.637 216.653L215.988 136.472L201.436 143.123L238.085 223.304L252.637 216.653ZM216.007 136.515C214.834 133.906 213.092 131.165 210.246 129.163C207.307 127.094 204.036 126.403 200.899 126.403V142.403C201.311 142.403 201.453 142.448 201.417 142.438C201.358 142.422 201.205 142.365 201.038 142.247C200.704 142.012 200.916 141.968 201.417 143.081L216.007 136.515ZM200.899 126.403C196.936 126.403 192.776 127.526 189.597 130.648C186.403 133.784 185.271 137.882 185.271 141.658H201.271C201.271 141.309 201.323 141.243 201.277 141.369C201.223 141.519 201.082 141.794 200.806 142.065C200.532 142.334 200.286 142.44 200.221 142.463C200.18 142.477 200.371 142.403 200.899 142.403V126.403ZM379.475 139.984L372.146 136.777L372.086 136.913L372.032 137.05L379.475 139.984ZM339.664 241V249H345.11L347.106 243.933L339.664 241ZM315.479 241L308.039 238.061L303.718 249H315.479V241ZM359.569 129.38L352.133 126.429L352.129 126.441L359.569 129.38ZM412.031 129.38L419.509 126.538L419.507 126.532L412.031 129.38ZM454.446 241V249H466.045L461.925 238.158L454.446 241ZM430.076 241L422.592 243.826L424.545 249H430.076V241ZM391.939 139.984L384.448 142.793L384.452 142.801L384.455 142.809L391.939 139.984ZM372.032 137.05L332.221 238.067L347.106 243.933L386.918 142.917L372.032 137.05ZM339.664 233H315.479V249H339.664V233ZM322.92 243.939L367.01 132.319L352.129 126.441L308.039 238.061L322.92 243.939ZM367.005 132.331C368.807 127.791 371.072 125.295 373.636 123.781C376.344 122.182 380.21 121.195 385.986 121.195V105.195C378.553 105.195 371.537 106.44 365.501 110.003C359.321 113.652 354.983 119.248 352.133 126.429L367.005 132.331ZM385.986 121.195C391.657 121.195 395.464 122.178 398.118 123.762C400.623 125.257 402.84 127.726 404.555 132.228L419.507 126.532C416.757 119.314 412.462 113.69 406.317 110.023C400.32 106.444 393.337 105.195 385.986 105.195V121.195ZM404.552 132.222L446.968 243.842L461.925 238.158L419.509 126.538L404.552 132.222ZM454.446 233H430.076V249H454.446V233ZM437.56 238.174L399.423 137.158L384.455 142.809L422.592 243.826L437.56 238.174ZM399.43 137.175C398.434 134.52 396.759 131.949 394.074 130.118C391.403 128.297 388.46 127.705 385.8 127.705V143.705C386.117 143.705 385.685 143.764 385.06 143.338C384.774 143.142 384.579 142.931 384.47 142.781C384.37 142.644 384.383 142.617 384.448 142.793L399.43 137.175ZM385.8 127.705C383.118 127.705 380.22 128.306 377.572 130.072C374.943 131.824 373.243 134.269 372.146 136.777L386.804 143.19C386.909 142.95 386.958 142.908 386.903 142.978C386.839 143.06 386.691 143.222 386.447 143.385C386.202 143.548 385.968 143.64 385.805 143.684C385.657 143.723 385.635 143.705 385.8 143.705V127.705ZM570.007 115.427H578.007V107.427H570.007V115.427ZM570.007 137.379V145.379H578.007V137.379H570.007ZM469.549 241H461.549V249H469.549V241ZM469.549 219.048V211.048H461.549V219.048H469.549ZM506.383 123.427H570.007V107.427H506.383V123.427ZM562.007 115.427V137.379H578.007V115.427H562.007ZM570.007 129.379H505.639V145.379H570.007V129.379ZM505.639 129.379C498.563 129.379 492.193 131.313 487.591 135.836C482.981 140.365 481.268 146.387 481.268 152.262H497.268C497.268 149.393 498.066 147.974 498.805 147.248C499.551 146.515 501.367 145.379 505.639 145.379V129.379ZM481.268 152.262C481.268 157.355 482.583 163.482 487.449 168.267C492.292 173.03 499.314 175.145 507.871 175.145V159.145C501.732 159.145 499.453 157.631 498.668 156.86C497.906 156.111 497.268 154.796 497.268 152.262H481.268ZM507.871 175.145H537.265V159.145H507.871V175.145ZM537.265 175.145C552.922 175.145 560.97 179.446 565.261 184.23C569.699 189.178 571.494 196.157 571.494 204.165H587.494C587.494 194.128 585.29 182.597 577.171 173.546C568.905 164.331 555.838 159.145 537.265 159.145V175.145ZM571.494 204.165C571.494 213.415 569.031 220.333 564.522 224.94C560.052 229.507 552.4 233 539.497 233V249C555.244 249 567.59 244.68 575.957 236.131C584.284 227.623 587.494 216.124 587.494 204.165H571.494ZM539.497 233H469.549V249H539.497V233ZM477.549 241V219.048H461.549V241H477.549ZM469.549 227.048H540.241V211.048H469.549V227.048ZM540.241 227.048C547.619 227.048 554.196 225.009 558.943 220.38C563.701 215.738 565.542 209.543 565.542 203.421H549.542C549.542 206.415 548.686 208.033 547.771 208.926C546.843 209.831 544.769 211.048 540.241 211.048V227.048ZM565.542 203.421C565.542 198.005 564.109 191.666 559.017 186.771C553.982 181.931 546.705 179.794 537.823 179.794V195.794C544.381 195.794 546.964 197.379 547.929 198.306C548.836 199.178 549.542 200.652 549.542 203.421H565.542ZM537.823 179.794H508.616V195.794H537.823V179.794ZM508.616 179.794C493.36 179.794 485.542 175.557 481.379 170.889C477.06 166.047 475.316 159.237 475.316 151.518H459.316C459.316 161.286 461.479 172.614 469.438 181.539C477.553 190.637 490.385 195.794 508.616 195.794V179.794ZM475.316 151.518C475.316 142.457 477.732 135.723 482.104 131.254C486.436 126.825 493.857 123.427 506.383 123.427V107.427C491.004 107.427 478.892 111.657 470.667 120.065C462.482 128.432 459.316 139.743 459.316 151.518H475.316Z" fill="white" fill-opacity="0.08" mask="url(#path-2-outside-1_24_10)"/>
</g>
<defs>
<clipPath id="clip0_24_10">
<rect width="589" height="300" fill="white"/>
</clipPath>
</defs>
</svg>
